<svg width="60" height="60" viewBox="0 0 60 60" fill="none" xmlns="http://www.w3.org/2000/svg">
<circle cx="30" cy="30" r="30" fill="#FF6366" fill-opacity="0.1"/>
<circle cx="30" cy="30" r="30" fill="#FF6366" fill-opacity="0.1"/>
<path d="M30 15.5C31.3807 15.5 32.5 16.6193 32.5 18V33C32.5 34.3807 31.3807 35.5 30 35.5C28.6193 35.5 27.5 34.3807 27.5 33V18C27.5 16.6193 28.6193 15.5 30 15.5Z" fill="#FF6366"/>
<path d="M30 38.5C31.3807 38.5 32.5 39.6193 32.5 41V42C32.5 43.3807 31.3807 44.5 30 44.5C28.6193 44.5 27.5 43.3807 27.5 42V41C27.5 39.6193 28.6193 38.5 30 38.5Z" fill="#FF6366"/>
</svg>
