<svg width="66" height="24" viewBox="0 0 66 24" fill="none" xmlns="http://www.w3.org/2000/svg">
<rect x="0.5" y="0.5" width="65" height="23" rx="11.5" stroke="#C0C0C0"/>
<path d="M23.4688 8.45312V7.51562H29.8672V8.45312H27.207V16H26.1406V8.45312H23.4688ZM32.5803 16.1289C30.8459 16.1289 29.6741 14.8281 29.6741 12.8477C29.6741 10.8672 30.8459 9.55469 32.5803 9.55469C34.303 9.55469 35.4631 10.8672 35.4631 12.8477C35.4631 14.8281 34.303 16.1289 32.5803 16.1289ZM32.5803 15.2383C33.8577 15.2383 34.4553 14.1133 34.4553 12.8477C34.4553 11.582 33.8577 10.4453 32.5803 10.4453C31.2795 10.4453 30.6819 11.582 30.6819 12.8477C30.6819 14.1133 31.2795 15.2383 32.5803 15.2383ZM38.9497 16.1289C37.3677 16.1289 36.2427 14.8516 36.2427 12.8359C36.2427 10.8203 37.3677 9.55469 38.9614 9.55469C40.1919 9.55469 40.5903 10.3047 40.8013 10.6445H40.8716V7.51562H41.8911V16H40.9067V15.0273H40.8013C40.5786 15.3789 40.1684 16.1289 38.9497 16.1289ZM39.0903 15.2266C40.2505 15.2266 40.9067 14.2422 40.9067 12.8125C40.9067 11.4062 40.2739 10.457 39.0903 10.457C37.8716 10.457 37.2622 11.4883 37.2622 12.8125C37.2622 14.1719 37.8833 15.2266 39.0903 15.2266ZM43.0925 14.1953C43.0925 12.7305 44.3816 12.4023 45.4831 12.3203C45.8874 12.291 46.9187 12.2383 47.2058 12.2266V11.7109C47.2058 10.9023 46.7253 10.4336 45.7644 10.4336C44.9558 10.4336 44.4753 10.8086 44.3347 11.2891H43.28C43.4089 10.2695 44.405 9.55469 45.8113 9.55469C46.6433 9.55469 48.2019 9.80078 48.2019 11.8047V16H47.2058V15.1328H47.1589C46.948 15.5664 46.362 16.1523 45.2605 16.1523C44.0534 16.1523 43.0925 15.4375 43.0925 14.1953ZM44.1003 14.2422C44.1003 14.9102 44.6628 15.25 45.4363 15.25C46.573 15.25 47.2058 14.4883 47.2058 13.6914V13.0469L45.6003 13.1641C44.6863 13.2227 44.1003 13.5508 44.1003 14.2422ZM49.9892 18.3906C49.7666 18.3906 49.5556 18.3789 49.4267 18.3672V17.4648C49.5322 17.4766 49.7666 17.4883 49.9189 17.4883C50.3291 17.4883 50.6689 17.4531 51.0088 16.5273L51.1963 16.0469L48.8408 9.63672H49.9423L51.6767 14.6875H51.747L53.4814 9.63672H54.583L51.8877 16.9141C51.5127 17.9102 50.8916 18.3906 49.9892 18.3906Z" fill="#666666"/>
<path d="M10.6541 9.07292C10.5221 9.03809 10.4123 8.94642 10.3546 8.8227C10.2968 8.69898 10.297 8.556 10.3551 8.43243L11.3738 6.26441C11.4497 6.10284 11.6122 5.99978 11.7907 6C11.9692 6.00022 12.1315 6.10369 12.207 6.26544L12.6564 7.22802C12.6725 7.2217 12.6891 7.21623 12.7062 7.21165C15.3729 6.49711 18.1139 8.07965 18.8284 10.7464C19.543 13.4131 17.9604 16.1541 15.2937 16.8686C12.627 17.5832 9.886 16.0006 9.17146 13.3339C8.94424 12.4859 8.94935 11.6291 9.14836 10.8324C9.20994 10.5859 9.45969 10.436 9.7062 10.4976C9.9527 10.5592 10.1026 10.8089 10.041 11.0554C9.87892 11.7044 9.87445 12.4025 10.0602 13.0958C10.6432 15.2716 12.8797 16.5629 15.0556 15.9799C17.2314 15.3968 18.5227 13.1603 17.9397 10.9845C17.3662 8.84422 15.1928 7.55986 13.0511 8.07331L13.5045 9.04452C13.58 9.20627 13.5551 9.39711 13.4407 9.5341C13.3262 9.67109 13.1429 9.72952 12.9703 9.68398L10.6541 9.07292Z" fill="#C0C0C0"/>
</svg>
