<svg width="32" height="40" viewBox="0 0 32 40" fill="none" xmlns="http://www.w3.org/2000/svg">
<path d="M15.1172 29.4961V39.9961H13.9922V29.4961H15.1172ZM12.6211 30.5742V31.4883H11.5312V36.3633C12.0762 36.3281 12.6152 36.2812 13.1367 36.2227L13.1953 37.043C10.9219 37.4062 8.42578 37.4414 6.49219 37.4531L6.36328 36.5273L7.74609 36.5156V31.4883H6.64453V30.5742H12.6211ZM8.82422 36.4922C9.35156 36.4805 9.89648 36.4629 10.4414 36.4336V31.4883H8.82422V36.4922ZM25.2656 34.4766V35.3906H17.9531V30.4336H25.1719V31.3477H19.0547V34.4766H25.2656ZM26.3672 37.6875V38.6133H16.7578V37.6875H26.3672Z" fill="#B063FF"/>
<path fill-rule="evenodd" clip-rule="evenodd" d="M24.4 0H7.6C5.61177 0 4 1.61177 4 3.6V20.4C4 22.3882 5.61177 24 7.6 24H24.4C26.3882 24 28 22.3882 28 20.4V3.6C28 1.61177 26.3882 0 24.4 0ZM11.104 18.4559C11.0469 18.6032 10.9612 18.7378 10.852 18.8519C10.7353 18.9579 10.6014 19.0431 10.456 19.1039C10.3117 19.1654 10.1568 19.198 9.99999 19.1999C9.68227 19.1955 9.37795 19.0712 9.14799 18.8519C9.03874 18.7378 8.9531 18.6032 8.89599 18.4559C8.76761 18.1655 8.76761 17.8344 8.89599 17.5439C8.9531 17.3966 9.03874 17.262 9.14799 17.1479C9.49306 16.8074 10.0091 16.708 10.456 16.8959C10.6014 16.9567 10.7353 17.0419 10.852 17.1479C10.9612 17.262 11.0469 17.3966 11.104 17.5439C11.2324 17.8344 11.2324 18.1655 11.104 18.4559ZM11.1279 12.4561C11.1625 12.388 11.1868 12.3152 11.1999 12.2401C11.2058 12.1602 11.2058 12.0799 11.1999 12.0001C11.1955 11.6823 11.0712 11.378 10.8519 11.1481C10.7353 11.0421 10.6014 10.9568 10.4559 10.8961C10.0091 10.7081 9.49302 10.8076 9.14795 11.1481C9.03682 11.2607 8.95092 11.3957 8.89595 11.5441C8.83446 11.6883 8.80184 11.8432 8.79995 12.0001C8.7981 12.319 8.92332 12.6256 9.14795 12.8521C9.37791 13.0713 9.68223 13.1956 9.99995 13.2001C10.1648 13.2014 10.3282 13.1687 10.4799 13.1041C10.6254 13.0433 10.7593 12.9581 10.8759 12.8521L11.0199 12.6721C11.0654 12.6052 11.1017 12.5325 11.1279 12.4561ZM10.8519 6.8522C10.7353 6.9582 10.6014 7.04343 10.4559 7.1042C10.3135 7.17138 10.1574 7.20426 9.99995 7.2002C9.68223 7.19578 9.37791 7.07148 9.14795 6.8522C8.92332 6.62574 8.7981 6.31916 8.79995 6.0002C8.80184 5.84339 8.83446 5.68847 8.89595 5.5442C8.95672 5.39878 9.04195 5.26484 9.14795 5.1482C9.49302 4.80771 10.0091 4.70828 10.4559 4.8962C10.6014 4.95697 10.7353 5.0422 10.8519 5.1482C10.9579 5.26484 11.0432 5.39878 11.1039 5.5442C11.1654 5.68847 11.1981 5.84339 11.1999 6.0002C11.1955 6.31792 11.0712 6.62224 10.8519 6.8522ZM14.8001 19.1999H22.0001C22.6628 19.1999 23.2001 18.6626 23.2001 17.9999C23.2001 17.3371 22.6628 16.7999 22.0001 16.7999H14.8001C14.1373 16.7999 13.6001 17.3371 13.6001 17.9999C13.6001 18.6626 14.1373 19.1999 14.8001 19.1999ZM22.0001 13.2H14.8001C14.1373 13.2 13.6001 12.6627 13.6001 12C13.6001 11.3373 14.1373 10.8 14.8001 10.8H22.0001C22.6628 10.8 23.2001 11.3373 23.2001 12C23.2001 12.6627 22.6628 13.2 22.0001 13.2ZM14.8001 7.20015H22.0001C22.6628 7.20015 23.2001 6.66289 23.2001 6.00015C23.2001 5.3374 22.6628 4.80015 22.0001 4.80015H14.8001C14.1373 4.80015 13.6001 5.3374 13.6001 6.00015C13.6001 6.66289 14.1373 7.20015 14.8001 7.20015Z" fill="#B063FF"/>
</svg>
