<svg width="84" height="84" viewBox="0 0 84 84" fill="none" xmlns="http://www.w3.org/2000/svg">
<g filter="url(#filter0_d_2090_6918)">
<rect x="14" y="14" width="56" height="56" rx="28" fill="url(#paint0_linear_2090_6918)"/>
<path d="M41.1722 35.1486L41.1663 46.0136C41.1663 46.2346 41.2541 46.4466 41.4104 46.6029C41.5667 46.7592 41.7787 46.847 41.9997 46.847C42.2207 46.847 42.4327 46.7592 42.5889 46.6029C42.7452 46.4466 42.833 46.2346 42.833 46.0136L42.8388 35.1628L45.2655 37.5903C45.4218 37.7465 45.6337 37.8343 45.8547 37.8343C46.0756 37.8343 46.2876 37.7465 46.4438 37.5903C46.6001 37.434 46.6878 37.2221 46.6878 37.0011C46.6878 36.7802 46.6001 36.5682 46.4438 36.412L43.768 33.7328C43.5358 33.5005 43.2602 33.3162 42.9568 33.1905C42.6533 33.0647 42.3281 33 41.9997 33C41.6712 33 41.346 33.0647 41.0426 33.1905C40.7392 33.3162 40.4635 33.5005 40.2313 33.7328L37.5555 36.4095C37.3993 36.5657 37.3115 36.7777 37.3115 36.9986C37.3115 37.2196 37.3993 37.4315 37.5555 37.5878C37.7118 37.744 37.9237 37.8318 38.1447 37.8318C38.3656 37.8318 38.5776 37.744 38.7338 37.5878L41.1722 35.1486Z" fill="white"/>
<path d="M50.3333 46.1654V49.4987C50.3333 49.7197 50.2455 49.9317 50.0893 50.0879C49.933 50.2442 49.721 50.332 49.5 50.332H34.5C34.279 50.332 34.067 50.2442 33.9107 50.0879C33.7545 49.9317 33.6667 49.7197 33.6667 49.4987V46.1654C33.6667 45.9443 33.5789 45.7324 33.4226 45.5761C33.2663 45.4198 33.0543 45.332 32.8333 45.332C32.6123 45.332 32.4004 45.4198 32.2441 45.5761C32.0878 45.7324 32 45.9443 32 46.1654V49.4987C32 50.1617 32.2634 50.7976 32.7322 51.2665C33.2011 51.7353 33.837 51.9987 34.5 51.9987H49.5C50.163 51.9987 50.7989 51.7353 51.2678 51.2665C51.7366 50.7976 52 50.1617 52 49.4987V46.1654C52 45.9443 51.9122 45.7324 51.7559 45.5761C51.5996 45.4198 51.3877 45.332 51.1667 45.332C50.9457 45.332 50.7337 45.4198 50.5774 45.5761C50.4211 45.7324 50.3333 45.9443 50.3333 46.1654Z" fill="white"/>
</g>
<defs>
<filter id="filter0_d_2090_6918" x="0" y="0" width="84" height="84" filterUnits="userSpaceOnUse" color-interpolation-filters="sRGB">
<feFlood flood-opacity="0" result="BackgroundImageFix"/>
<feColorMatrix in="SourceAlpha" type="matrix" values="0 0 0 0 0 0 0 0 0 0 0 0 0 0 0 0 0 0 127 0" result="hardAlpha"/>
<feOffset/>
<feGaussianBlur stdDeviation="7"/>
<feComposite in2="hardAlpha" operator="out"/>
<feColorMatrix type="matrix" values="0 0 0 0 0 0 0 0 0 0 0 0 0 0 0 0 0 0 0.25 0"/>
<feBlend mode="normal" in2="BackgroundImageFix" result="effect1_dropShadow_2090_6918"/>
<feBlend mode="normal" in="SourceGraphic" in2="effect1_dropShadow_2090_6918" result="shape"/>
</filter>
<linearGradient id="paint0_linear_2090_6918" x1="12.6467" y1="-3.46667" x2="75.7234" y2="26.6763" gradientUnits="userSpaceOnUse">
<stop stop-color="#CD9CFF"/>
<stop offset="0.471153" stop-color="#C184FF"/>
<stop offset="1" stop-color="#B063FF"/>
</linearGradient>
</defs>
</svg>
