<svg width="32" height="40" viewBox="0 0 32 40" fill="none" xmlns="http://www.w3.org/2000/svg">
<path d="M17.0607 0.43934C16.4749 -0.146447 15.5252 -0.146447 14.9394 0.43934L4.43934 10.9394C3.85355 11.5251 3.85355 12.4749 4.43934 13.0607C5.02513 13.6465 5.97487 13.6465 6.56067 13.0607L7.00001 12.6213V22.5C7.00001 23.3285 7.67159 24 8.50001 24H11.5C12.3284 24 13 23.3285 13 22.5V19.5C13 18.6716 13.6716 18 14.5 18H17.5C18.3285 18 19 18.6716 19 19.5V22.5C19 23.3285 19.6716 24 20.5 24H23.5C24.3285 24 25 23.3285 25 22.5V12.6213L25.4394 13.0607C26.0251 13.6465 26.9749 13.6465 27.5607 13.0607C28.1464 12.4749 28.1464 11.5251 27.5607 10.9394L17.0607 0.43934Z" fill="#B063FF"/>
<path d="M19.7891 36.832V39.8672H12.5352V36.832H19.7891ZM13.6367 37.6875V39.0117H18.7109V37.6875H13.6367ZM20.4219 30.3281V31.1836H11.8789V30.3281H15.6172V29.3555H16.7305V30.3281H20.4219ZM16.168 31.5586C18.3828 31.5586 19.6133 32.0625 19.6133 33.0469C19.6133 33.9434 18.5879 34.4414 16.7305 34.5234V35.2383H20.9609V36.1172H11.3867V35.2383H15.6172V34.5234C13.7598 34.4414 12.7109 33.9434 12.7227 33.0469C12.7109 32.0625 13.9648 31.5586 16.168 31.5586ZM16.168 32.3203C14.7031 32.332 13.9062 32.5664 13.9062 33.0469C13.9062 33.5156 14.7031 33.7734 16.168 33.7734C17.6445 33.7734 18.4297 33.5156 18.4297 33.0469C18.4297 32.5664 17.6445 32.332 16.168 32.3203Z" fill="#B063FF"/>
</svg>
