<svg width="18" height="18" viewBox="0 0 18 18" fill="none" xmlns="http://www.w3.org/2000/svg">
<path fill-rule="evenodd" clip-rule="evenodd" d="M15.091 2.90901C14.2122 2.03033 12.7877 2.03033 11.909 2.90901L10.2215 4.59652C9.78214 5.03585 9.06987 5.03585 8.63053 4.59652C8.19118 4.15717 8.19118 3.44487 8.63053 3.00552L10.318 1.31802C12.0754 -0.439339 14.9246 -0.439339 16.682 1.31802C18.4393 3.07538 18.4393 5.92463 16.682 7.682L13.307 11.057C11.5496 12.8143 8.70038 12.8143 6.94303 11.057C6.50368 10.6177 6.50368 9.90535 6.94303 9.46601C7.38236 9.02667 8.09464 9.02667 8.53399 9.46601C9.41267 10.3447 10.8373 10.3447 11.716 9.46601L15.091 6.091C15.9696 5.21232 15.9696 3.7877 15.091 2.90901ZM9.46601 8.53402C8.58732 7.65534 7.16269 7.65534 6.28402 8.53402L2.90901 11.909C2.03033 12.7877 2.03033 14.2124 2.90901 15.091C3.7877 15.9697 5.21232 15.9697 6.091 15.091L7.7785 13.4035C8.21785 12.9642 8.93015 12.9642 9.3695 13.4035C9.80883 13.8428 9.80883 14.5552 9.3695 14.9945L7.682 16.682C5.92463 18.4393 3.07538 18.4393 1.31802 16.682C-0.439339 14.9246 -0.439339 12.0754 1.31802 10.318L4.69302 6.94303C6.45039 5.18567 9.29964 5.18567 11.057 6.94303C11.4964 7.38237 11.4964 8.09468 11.057 8.53402C10.6177 8.97336 9.90535 8.97336 9.46601 8.53402Z" fill="#C0C0C0"/>
</svg>
