<svg width="12" height="14" viewBox="0 0 12 14" fill="none" xmlns="http://www.w3.org/2000/svg">
<path d="M3.33333 8.33398C3.14444 8.33398 2.98611 8.2701 2.85833 8.14232C2.73056 8.01454 2.66667 7.85621 2.66667 7.66732C2.66667 7.47843 2.73056 7.3201 2.85833 7.19232C2.98611 7.06454 3.14444 7.00065 3.33333 7.00065C3.52222 7.00065 3.68056 7.06454 3.80833 7.19232C3.93611 7.3201 4 7.47843 4 7.66732C4 7.85621 3.93611 8.01454 3.80833 8.14232C3.68056 8.2701 3.52222 8.33398 3.33333 8.33398ZM6 8.33398C5.81111 8.33398 5.65278 8.2701 5.525 8.14232C5.39722 8.01454 5.33333 7.85621 5.33333 7.66732C5.33333 7.47843 5.39722 7.3201 5.525 7.19232C5.65278 7.06454 5.81111 7.00065 6 7.00065C6.18889 7.00065 6.34722 7.06454 6.475 7.19232C6.60278 7.3201 6.66667 7.47843 6.66667 7.66732C6.66667 7.85621 6.60278 8.01454 6.475 8.14232C6.34722 8.2701 6.18889 8.33398 6 8.33398ZM8.66667 8.33398C8.47778 8.33398 8.31944 8.2701 8.19167 8.14232C8.06389 8.01454 8 7.85621 8 7.66732C8 7.47843 8.06389 7.3201 8.19167 7.19232C8.31944 7.06454 8.47778 7.00065 8.66667 7.00065C8.85556 7.00065 9.01389 7.06454 9.14167 7.19232C9.26945 7.3201 9.33333 7.47843 9.33333 7.66732C9.33333 7.85621 9.26945 8.01454 9.14167 8.14232C9.01389 8.2701 8.85556 8.33398 8.66667 8.33398ZM1.33333 13.6673C0.966667 13.6673 0.652778 13.5368 0.391667 13.2757C0.130556 13.0145 0 12.7007 0 12.334V3.00065C0 2.63398 0.130556 2.3201 0.391667 2.05898C0.652778 1.79787 0.966667 1.66732 1.33333 1.66732H2V1.00065C2 0.811762 2.06389 0.653429 2.19167 0.525651C2.31944 0.397873 2.47778 0.333984 2.66667 0.333984C2.85556 0.333984 3.01389 0.397873 3.14167 0.525651C3.26944 0.653429 3.33333 0.811762 3.33333 1.00065V1.66732H8.66667V1.00065C8.66667 0.811762 8.73056 0.653429 8.85833 0.525651C8.98611 0.397873 9.14444 0.333984 9.33333 0.333984C9.52222 0.333984 9.68056 0.397873 9.80833 0.525651C9.93611 0.653429 10 0.811762 10 1.00065V1.66732H10.6667C11.0333 1.66732 11.3472 1.79787 11.6083 2.05898C11.8694 2.3201 12 2.63398 12 3.00065V12.334C12 12.7007 11.8694 13.0145 11.6083 13.2757C11.3472 13.5368 11.0333 13.6673 10.6667 13.6673H1.33333ZM1.33333 12.334H10.6667V5.66732H1.33333V12.334ZM1.33333 4.33398H10.6667V3.00065H1.33333V4.33398Z" 
fill="currentColor"/>
</svg>
