<svg width="14" height="14" viewBox="0 0 14 14" fill="none" xmlns="http://www.w3.org/2000/svg">
<path d="M7.66671 6.73398V4.33398C7.66671 4.1451 7.60282 3.98676 7.47504 3.85898C7.34726 3.73121 7.18893 3.66732 7.00004 3.66732C6.81115 3.66732 6.65282 3.73121 6.52504 3.85898C6.39726 3.98676 6.33337 4.1451 6.33337 4.33398V6.98398C6.33337 7.07287 6.35004 7.15898 6.38337 7.24232C6.41671 7.32565 6.46671 7.40065 6.53337 7.46732L8.73337 9.66732C8.8556 9.78954 9.01115 9.85065 9.20004 9.85065C9.38893 9.85065 9.54449 9.78954 9.66671 9.66732C9.78893 9.5451 9.85004 9.38954 9.85004 9.20065C9.85004 9.01176 9.78893 8.85621 9.66671 8.73398L7.66671 6.73398ZM7.00004 13.6673C6.07782 13.6673 5.21115 13.4923 4.40004 13.1423C3.58893 12.7923 2.88337 12.3173 2.28337 11.7173C1.68337 11.1173 1.20837 10.4118 0.858374 9.60065C0.508374 8.78954 0.333374 7.92287 0.333374 7.00065C0.333374 6.07843 0.508374 5.21176 0.858374 4.40065C1.20837 3.58954 1.68337 2.88398 2.28337 2.28398C2.88337 1.68398 3.58893 1.20898 4.40004 0.858984C5.21115 0.508984 6.07782 0.333984 7.00004 0.333984C7.92226 0.333984 8.78893 0.508984 9.60004 0.858984C10.4112 1.20898 11.1167 1.68398 11.7167 2.28398C12.3167 2.88398 12.7917 3.58954 13.1417 4.40065C13.4917 5.21176 13.6667 6.07843 13.6667 7.00065C13.6667 7.92287 13.4917 8.78954 13.1417 9.60065C12.7917 10.4118 12.3167 11.1173 11.7167 11.7173C11.1167 12.3173 10.4112 12.7923 9.60004 13.1423C8.78893 13.4923 7.92226 13.6673 7.00004 13.6673ZM7.00004 12.334C8.47782 12.334 9.73615 11.8145 10.775 10.7757C11.8139 9.73676 12.3334 8.47843 12.3334 7.00065C12.3334 5.52287 11.8139 4.26454 10.775 3.22565C9.73615 2.18676 8.47782 1.66732 7.00004 1.66732C5.52226 1.66732 4.26393 2.18676 3.22504 3.22565C2.18615 4.26454 1.66671 5.52287 1.66671 7.00065C1.66671 8.47843 2.18615 9.73676 3.22504 10.7757C4.26393 11.8145 5.52226 12.334 7.00004 12.334Z" 
fill="currentColor"
/>
</svg>
