<svg width="60" height="82" viewBox="0 0 60 82" fill="none" xmlns="http://www.w3.org/2000/svg">
<rect width="60" height="60" rx="30" fill="#C0C0C0"/>
<path d="M10.5742 70.1016H11.8047V76.6504C11.8047 78.6875 10.2803 80.1709 7.94922 80.1777C5.61133 80.1709 4.09375 78.6875 4.09375 76.6504V70.1016H5.32422V76.5547C5.31738 77.9902 6.31543 79.0225 7.94922 79.0293C9.58301 79.0225 10.5674 77.9902 10.5742 76.5547V70.1016ZM13.9922 80V70.1016H17.3555C19.6729 70.1016 20.7324 71.3867 20.7324 73.1504C20.7324 74.4629 20.1445 75.4883 18.8867 75.9258L21.1152 80H19.6797L17.6084 76.1514C17.5332 76.1582 17.4512 76.1582 17.3691 76.1582H15.2227V80H13.9922ZM15.2227 75.0371H17.3145C18.8936 75.0371 19.5088 74.3262 19.5156 73.1504C19.5088 71.9678 18.8936 71.1953 17.3008 71.1953H15.2227V75.0371ZM22.5098 80V70.1016H23.7402V78.9062H28.334V80H22.5098ZM43.9609 75.2422V76.1309H32.8867V75.2422H37.8906V73.7793H34.3633V69.2402H35.4297V70.6484H41.4453V69.2402H42.5117V73.7793H38.957V75.2422H43.9609ZM34.1172 78.1953V77.334H42.5938V81.1074H41.5137V78.1953H34.1172ZM35.4297 72.918H41.4453V71.4688H35.4297V72.918ZM49.0605 72.2207C49.0605 74.3604 50.4756 76.5684 52.2051 77.416L51.5488 78.2773C50.209 77.5801 49.0879 76.1377 48.5479 74.4492C48.0078 76.2402 46.8594 77.7783 45.4922 78.5098L44.8086 77.6484C46.5859 76.7734 47.9941 74.4424 48.0078 72.2207V70.0059H49.0605V72.2207ZM53.3262 81.1074V68.9531H54.3926V73.8887H56.4297V74.8184H54.3926V81.1074H53.3262Z" fill="#666666"/>
<mask id="mask0_2090_6957" style="mask-type:luminance" maskUnits="userSpaceOnUse" x="18" y="18" width="24" height="24">
<path d="M42 18H18V42H42V18Z" fill="white"/>
</mask>
<g mask="url(#mask0_2090_6957)">
<path fill-rule="evenodd" clip-rule="evenodd" d="M37.3094 22.691C36.2549 21.6366 34.5454 21.6366 33.491 22.691L31.466 24.716C30.9388 25.2432 30.084 25.2432 29.5568 24.716C29.0296 24.1888 29.0296 23.334 29.5568 22.8068L31.5818 20.7818C33.6907 18.673 37.1097 18.673 39.2186 20.7818C41.3274 22.8907 41.3274 26.3098 39.2186 28.4186L35.1686 32.4686C33.0597 34.5774 29.6407 34.5774 27.5318 32.4686C27.0046 31.9414 27.0046 31.0866 27.5318 30.5594C28.059 30.0322 28.9138 30.0322 29.441 30.5594C30.4954 31.6138 32.2049 31.6138 33.2594 30.5594L37.3094 26.5094C38.3637 25.455 38.3637 23.7454 37.3094 22.691ZM30.5594 29.441C29.505 28.3866 27.7954 28.3866 26.741 29.441L22.691 33.491C21.6366 34.5454 21.6366 36.255 22.691 37.3094C23.7454 38.3639 25.455 38.3639 26.5094 37.3094L28.5344 35.2844C29.0616 34.7572 29.9164 34.7572 30.4436 35.2844C30.9708 35.8116 30.9708 36.6664 30.4436 37.1936L28.4186 39.2186C26.3098 41.3274 22.8907 41.3274 20.7818 39.2186C18.673 37.1097 18.673 33.6907 20.7818 31.5818L24.8318 27.5318C26.9407 25.423 30.3598 25.423 32.4686 27.5318C32.9959 28.059 32.9959 28.9138 32.4686 29.441C31.9414 29.9682 31.0866 29.9682 30.5594 29.441Z" fill="white"/>
</g>
</svg>
