<svg width="68" height="68" viewBox="0 0 68 68" fill="none" xmlns="http://www.w3.org/2000/svg">
<g filter="url(#filter0_d_383_1769)">
<rect x="10" y="10" width="48" height="48" rx="24" fill="url(#paint0_linear_383_1769)"/>
<path d="M27.3906 41H25.334L29.9043 28.2734H32.1367L36.7246 41H34.668L33.5078 37.6426H28.5508L27.3906 41ZM29.1133 36.0254H32.9453L31.0645 30.5938H30.9766L29.1133 36.0254ZM40.2754 28.2734V41H38.3418V28.2734H40.2754Z" fill="white"/>
<g clip-path="url(#clip0_383_1769)">
<path d="M45 20L45.8145 22.2001C45.9834 22.6566 46.3434 23.0166 46.7999 23.1855L49 24L46.7999 24.8145C46.3434 24.9834 45.9834 25.3434 45.8145 25.7999L45 28L44.1855 25.7999C44.0166 25.3434 43.6566 24.9834 43.2001 24.8145L41 24L43.2001 23.1855C43.6566 23.0166 44.0166 22.6566 44.1855 22.2001L45 20Z" fill="url(#paint1_linear_383_1769)"/>
</g>
<g clip-path="url(#clip1_383_1769)">
<path d="M49 27.5L49.5091 28.8751C49.6146 29.1604 49.8396 29.3854 50.1249 29.491L51.5 30L50.1249 30.5091C49.8396 30.6146 49.6146 30.8396 49.5091 31.1249L49 32.5L48.491 31.1249C48.3854 30.8396 48.1604 30.6146 47.8751 30.5091L46.5 30L47.8751 29.491C48.1604 29.3854 48.3854 29.1604 48.491 28.8751L49 27.5Z" fill="url(#paint2_linear_383_1769)"/>
</g>
</g>
<defs>
<filter id="filter0_d_383_1769" x="0" y="0" width="68" height="68" filterUnits="userSpaceOnUse" color-interpolation-filters="sRGB">
<feFlood flood-opacity="0" result="BackgroundImageFix"/>
<feColorMatrix in="SourceAlpha" type="matrix" values="0 0 0 0 0 0 0 0 0 0 0 0 0 0 0 0 0 0 127 0" result="hardAlpha"/>
<feOffset/>
<feGaussianBlur stdDeviation="5"/>
<feComposite in2="hardAlpha" operator="out"/>
<feColorMatrix type="matrix" values="0 0 0 0 0 0 0 0 0 0 0 0 0 0 0 0 0 0 0.15 0"/>
<feBlend mode="normal" in2="BackgroundImageFix" result="effect1_dropShadow_383_1769"/>
<feBlend mode="normal" in="SourceGraphic" in2="effect1_dropShadow_383_1769" result="shape"/>
</filter>
<linearGradient id="paint0_linear_383_1769" x1="34" y1="10" x2="34" y2="58" gradientUnits="userSpaceOnUse">
<stop stop-color="#5A8BFF"/>
<stop offset="1" stop-color="#AF64FF"/>
</linearGradient>
<linearGradient id="paint1_linear_383_1769" x1="41" y1="24" x2="49" y2="24" gradientUnits="userSpaceOnUse">
<stop stop-color="white"/>
<stop offset="1" stop-color="white"/>
</linearGradient>
<linearGradient id="paint2_linear_383_1769" x1="46.5" y1="30" x2="51.5" y2="30" gradientUnits="userSpaceOnUse">
<stop stop-color="white"/>
<stop offset="1" stop-color="white"/>
</linearGradient>
<clipPath id="clip0_383_1769">
<rect width="8" height="8" fill="white" transform="translate(41 20)"/>
</clipPath>
<clipPath id="clip1_383_1769">
<rect width="5" height="5" fill="white" transform="translate(46.5 27.5)"/>
</clipPath>
</defs>
</svg>
